<svg width="45" height="45" viewBox="0 0 45 45" fill="none" xmlns="http://www.w3.org/2000/svg">
<rect width="45" height="45" rx="2" fill="#1D1D1D"/>
<rect x="8.07715" y="6.9231" width="5.76923" height="5.76923" fill="#A259FF"/>
<path d="M22.866 37.9823C19.6799 37.9823 16.9374 37.337 14.6385 36.0464C12.3531 34.7424 10.592 32.9006 9.35522 30.5211C8.11841 28.1281 7.5 25.2983 7.5 22.0315C7.5 18.8453 8.11841 16.0491 9.35522 13.6427C10.592 11.2363 12.333 9.3609 14.5781 8.01654C16.8366 6.67218 19.485 6 22.5232 6C24.5666 6 26.4689 6.32937 28.23 6.9881C30.0046 7.6334 31.5506 8.60806 32.8681 9.91208C34.199 11.2161 35.2341 12.8562 35.9735 14.8324C36.7129 16.7952 37.0826 19.0941 37.0826 21.729V24.0884H10.9281V18.7647H28.9963C28.9963 17.5279 28.7274 16.4322 28.1897 15.4777C27.652 14.5232 26.9058 13.7771 25.9513 13.2394C25.0103 12.6882 23.9146 12.4126 22.6644 12.4126C21.3603 12.4126 20.2042 12.7151 19.1959 13.32C18.2011 13.9116 17.4214 14.7114 16.8567 15.7197C16.2921 16.7145 16.0031 17.8236 15.9896 19.047V24.1085C15.9896 25.6411 16.2719 26.9653 16.8366 28.0811C17.4147 29.1969 18.228 30.0573 19.2766 30.6623C20.3252 31.2672 21.5687 31.5697 23.0072 31.5697C23.9617 31.5697 24.8355 31.4353 25.6287 31.1664C26.4219 30.8975 27.1008 30.4942 27.6654 29.9565C28.23 29.4187 28.6602 28.76 28.956 27.9803L36.9011 28.5046C36.4978 30.4136 35.6711 32.0806 34.4208 33.5056C33.184 34.9172 31.5842 36.0195 29.6214 36.8127C27.6721 37.5924 25.4203 37.9823 22.866 37.9823Z" fill="white"/>
<circle cx="29.2167" cy="36.1401" r="2.67857" fill="#0D99FF"/>
<path d="M12.3736 23.6332L7.06589 31.5035L2.90395 22.9717L12.3736 23.6332Z" fill="#F7DF1E"/>
</svg>
