<svg width="45" height="45" viewBox="0 0 45 45" fill="none" xmlns="http://www.w3.org/2000/svg">
<rect x="8.07715" y="2.9231" width="5.76923" height="5.76923" fill="#A259FF"/>
<path d="M22.866 33.9823C19.6799 33.9823 16.9374 33.337 14.6385 32.0464C12.3531 30.7424 10.592 28.9006 9.35522 26.5211C8.11841 24.1281 7.5 21.2983 7.5 18.0315C7.5 14.8453 8.11841 12.0491 9.35522 9.64268C10.592 7.23628 12.333 5.3609 14.5781 4.01654C16.8366 2.67218 19.485 2 22.5232 2C24.5666 2 26.4689 2.32937 28.23 2.9881C30.0046 3.6334 31.5506 4.60806 32.8681 5.91208C34.199 7.21611 35.2341 8.85623 35.9735 10.8324C36.7129 12.7952 37.0826 15.0941 37.0826 17.729V20.0884H10.9281V14.7647H28.9963C28.9963 13.5279 28.7274 12.4322 28.1897 11.4777C27.652 10.5232 26.9058 9.77712 25.9513 9.23937C25.0103 8.68819 23.9146 8.41259 22.6644 8.41259C21.3603 8.41259 20.2042 8.71507 19.1959 9.32003C18.2011 9.91155 17.4214 10.7114 16.8567 11.7197C16.2921 12.7145 16.0031 13.8236 15.9896 15.047V20.1085C15.9896 21.6411 16.2719 22.9653 16.8366 24.0811C17.4147 25.1969 18.228 26.0573 19.2766 26.6623C20.3252 27.2672 21.5687 27.5697 23.0072 27.5697C23.9617 27.5697 24.8355 27.4353 25.6287 27.1664C26.4219 26.8975 27.1008 26.4942 27.6654 25.9565C28.23 25.4187 28.6602 24.76 28.956 23.9803L36.9011 24.5046C36.4978 26.4136 35.6711 28.0806 34.4208 29.5056C33.184 30.9172 31.5842 32.0195 29.6214 32.8127C27.6721 33.5924 25.4203 33.9823 22.866 33.9823Z" fill="#1D1D1D"/>
<circle cx="29.2167" cy="32.1401" r="2.67857" fill="#0D99FF"/>
<path d="M12.3736 19.6332L7.06589 27.5035L2.90395 18.9717L12.3736 19.6332Z" fill="#F7DF1E"/>
<path d="M8.44043 44V38.1818H12.412V39.3239H9.84668V40.5171H12.1592V41.662H9.84668V44H8.44043Z" fill="#1D1D1D"/>
<path d="M14.2921 44H12.7807L14.7438 38.1818H16.6159L18.579 44H17.0676L15.7012 39.6477H15.6557L14.2921 44ZM14.0904 41.7102H17.2495V42.7784H14.0904V41.7102Z" fill="#1D1D1D"/>
<path d="M19.8454 44V38.1818H22.2488C22.6844 38.1818 23.0604 38.2604 23.3767 38.4176C23.6949 38.5729 23.9401 38.7964 24.1125 39.0881C24.2848 39.3779 24.371 39.7216 24.371 40.1193C24.371 40.5227 24.2829 40.8656 24.1068 41.1477C23.9307 41.4281 23.6807 41.6421 23.3568 41.7898C23.0329 41.9356 22.6494 42.0085 22.2062 42.0085H20.6863V40.9006H21.9449C22.157 40.9006 22.3341 40.8731 22.4761 40.8182C22.6201 40.7614 22.729 40.6762 22.8028 40.5625C22.8767 40.447 22.9136 40.2993 22.9136 40.1193C22.9136 39.9394 22.8767 39.7907 22.8028 39.6733C22.729 39.554 22.6201 39.465 22.4761 39.4063C22.3322 39.3457 22.1551 39.3154 21.9449 39.3154H21.2517V44H19.8454ZM23.121 41.3409L24.5699 44H23.0358L21.6153 41.3409H23.121Z" fill="#1D1D1D"/>
<path d="M31.2738 41.0909C31.2738 41.7311 31.1507 42.2737 30.9045 42.7188C30.6583 43.1638 30.3249 43.5019 29.9045 43.733C29.4859 43.964 29.0162 44.0796 28.4954 44.0796C27.9726 44.0796 27.502 43.9631 27.0834 43.7301C26.6649 43.4972 26.3325 43.1591 26.0863 42.7159C25.842 42.2709 25.7198 41.7292 25.7198 41.0909C25.7198 40.4508 25.842 39.9082 26.0863 39.4631C26.3325 39.018 26.6649 38.6799 27.0834 38.4489C27.502 38.2178 27.9726 38.1023 28.4954 38.1023C29.0162 38.1023 29.4859 38.2178 29.9045 38.4489C30.3249 38.6799 30.6583 39.018 30.9045 39.4631C31.1507 39.9082 31.2738 40.4508 31.2738 41.0909ZM29.8363 41.0909C29.8363 40.7121 29.7823 40.3921 29.6744 40.1307C29.5683 39.8693 29.4149 39.6714 29.2141 39.537C29.0153 39.4025 28.7757 39.3352 28.4954 39.3352C28.217 39.3352 27.9774 39.4025 27.7766 39.537C27.5759 39.6714 27.4215 39.8693 27.3136 40.1307C27.2075 40.3921 27.1545 40.7121 27.1545 41.0909C27.1545 41.4697 27.2075 41.7898 27.3136 42.0512C27.4215 42.3125 27.5759 42.5104 27.7766 42.6449C27.9774 42.7794 28.217 42.8466 28.4954 42.8466C28.7757 42.8466 29.0153 42.7794 29.2141 42.6449C29.4149 42.5104 29.5683 42.3125 29.6744 42.0512C29.7823 41.7898 29.8363 41.4697 29.8363 41.0909Z" fill="#1D1D1D"/>
<path d="M32.7348 44V38.1818H34.1411V42.858H36.5615V44H32.7348Z" fill="#1D1D1D"/>
</svg>
