<svg width="51" height="21" viewBox="0 0 51 21" fill="none" xmlns="http://www.w3.org/2000/svg">
<path d="M0.320312 14.0747V10.0861L14.2038 4.25653V8.6191L5.03764 12.042L5.18146 11.8311V12.3393L5.03764 12.1187L14.2038 15.5513V19.9043L0.320312 14.0747Z" fill="#333333"/>
<path d="M18.0223 20.0001V0.36377H22.7108V7.79452H22.8067C22.9985 7.34708 23.2702 6.91562 23.6217 6.50013C23.9797 6.08465 24.4335 5.74587 24.9832 5.4838C25.5393 5.21533 26.2041 5.0811 26.9775 5.0811C28.0003 5.0811 28.9559 5.34957 29.8444 5.8865C30.7393 6.42343 31.4616 7.2512 32.0113 8.36981C32.561 9.48842 32.8358 10.9138 32.8358 12.6461C32.8358 14.3144 32.5706 15.7111 32.04 16.8361C31.5159 17.9611 30.8064 18.8048 29.9115 19.3673C29.023 19.9298 28.0354 20.2111 26.9488 20.2111C26.2073 20.2111 25.5649 20.0896 25.0216 19.8467C24.4782 19.6038 24.0212 19.2842 23.6505 18.8879C23.2861 18.4916 23.0049 18.0665 22.8067 17.6127H22.6629V20.0001H18.0223ZM22.615 12.6365C22.615 13.4291 22.7204 14.1195 22.9314 14.7075C23.1487 15.2956 23.4587 15.7526 23.8614 16.0786C24.2705 16.3982 24.7595 16.558 25.3284 16.558C25.9037 16.558 26.3927 16.3982 26.7954 16.0786C27.1981 15.7526 27.5017 15.2956 27.7062 14.7075C27.9172 14.1195 28.0226 13.4291 28.0226 12.6365C28.0226 11.8439 27.9172 11.1567 27.7062 10.5751C27.5017 9.99339 27.1981 9.54275 26.7954 9.22314C26.3991 8.90354 25.9101 8.74374 25.3284 8.74374C24.7531 8.74374 24.2641 8.90035 23.8614 9.21356C23.4587 9.52677 23.1487 9.97421 22.9314 10.5559C22.7204 11.1376 22.615 11.8311 22.615 12.6365Z" fill="#333333"/>
<path d="M50.0105 14.0747L36.127 19.9043V15.5513L45.2931 12.1187L45.1589 12.3393V11.8311L45.2931 12.042L36.127 8.6191V4.25653L50.0105 10.0861V14.0747Z" fill="#333333"/>
</svg>
