<svg width="45" height="45" viewBox="0 0 45 45" fill="none" xmlns="http://www.w3.org/2000/svg">
<rect width="45" height="45" rx="4" fill="white"/>
<path d="M3 25.0531V21.8377L14.1761 17.1382V20.6551L6.7974 23.4145L6.91317 23.2444V23.6541L6.7974 23.4763L14.1761 26.2435V29.7527L3 25.0531Z" fill="#333333"/>
<path d="M17.2499 29.83V14H21.0241V19.9903H21.1013C21.2557 19.6296 21.4744 19.2818 21.7574 18.9469C22.0455 18.6119 22.4108 18.3388 22.8534 18.1275C23.301 17.9111 23.8361 17.8029 24.4588 17.8029C25.282 17.8029 26.0513 18.0193 26.7665 18.4522C27.4869 18.885 28.0683 19.5523 28.5109 20.4541C28.9534 21.3559 29.1746 22.505 29.1746 23.9014C29.1746 25.2464 28.9611 26.3723 28.534 27.2792C28.1121 28.1862 27.5409 28.8663 26.8206 29.3198C26.1053 29.7733 25.3103 30 24.4356 30C23.8387 30 23.3216 29.9021 22.8842 29.7063C22.4469 29.5105 22.079 29.2528 21.7805 28.9333C21.4872 28.6138 21.2608 28.2712 21.1013 27.9053H20.9855V29.83H17.2499ZM20.9469 23.8937C20.9469 24.5327 21.0318 25.0892 21.2016 25.5633C21.3766 26.0374 21.6261 26.4058 21.9503 26.6686C22.2796 26.9262 22.6733 27.0551 23.1312 27.0551C23.5943 27.0551 23.9879 26.9262 24.3121 26.6686C24.6363 26.4058 24.8807 26.0374 25.0453 25.5633C25.2151 25.0892 25.3 24.5327 25.3 23.8937C25.3 23.2548 25.2151 22.7008 25.0453 22.2319C24.8807 21.763 24.6363 21.3997 24.3121 21.142C23.9931 20.8844 23.5995 20.7556 23.1312 20.7556C22.6681 20.7556 22.2745 20.8818 21.9503 21.1343C21.6261 21.3868 21.3766 21.7475 21.2016 22.2164C21.0318 22.6853 20.9469 23.2444 20.9469 23.8937Z" fill="#333333"/>
<path d="M43 25.0531L31.8239 29.7527V26.2435L39.2026 23.4763L39.0945 23.6541V23.2444L39.2026 23.4145L31.8239 20.6551V17.1382L43 21.8377V25.0531Z" fill="#333333"/>
</svg>
